<svg width="102" height="30" viewBox="0 0 102 30" fill="none" xmlns="http://www.w3.org/2000/svg">
<path fill-rule="evenodd" clip-rule="evenodd" d="M0 10.4541L8.58052 21.3632L0 28.5359V10.4541Z" fill="#606060"/>
<path fill-rule="evenodd" clip-rule="evenodd" d="M3.46289 28.5317L9.93891 23.0771L14.4143 28.5317H3.46289Z" fill="#606060"/>
<path fill-rule="evenodd" clip-rule="evenodd" d="M0 4.59063L2.25803 7.44972L11.4753 19.0588L14.4649 16.6588C12.8797 14.7358 11.4908 12.6572 10.3192 10.4543C7.05859 4.01791 9.36631 0.0224609 9.36631 0.0224609H0V4.59063Z" fill="#606060"/>
<path fill-rule="evenodd" clip-rule="evenodd" d="M12.793 20.8502L15.8413 18.3184C15.8413 18.3184 18.7497 22.1729 22.1277 23.082C26.5489 24.2729 28.5044 21.3638 28.5044 21.3638V28.532H18.7948L20.9806 26.6274C20.9806 26.6274 19.838 27.3911 17.0471 25.4456C15.3942 24.2956 12.793 20.8502 12.793 20.8502Z" fill="#606060"/>
<path fill-rule="evenodd" clip-rule="evenodd" d="M13.0731 0C13.0731 0 12.1022 1.33182 12.7931 4.5909C13.5338 8.07725 16.4737 11.7636 16.4692 11.6818C16.4692 11.6818 16.6589 8.01816 18.795 5.87271C20.014 4.57516 21.6085 3.6975 23.3517 3.36455C25.0948 3.0316 26.8979 3.26032 28.5045 4.01817V0.0227272L13.0731 0Z" fill="#606060"/>
<path fill-rule="evenodd" clip-rule="evenodd" d="M28.5051 8.84509C28.5051 8.84509 25.6284 6.36328 23.122 6.36328C21.8382 6.36225 20.6038 6.86149 19.6777 7.75634C18.7516 8.65119 18.2056 9.87216 18.1543 11.1633C18.1543 14.0996 19.5588 15.736 20.9633 17.1496C22.9865 19.186 25.4477 21.3769 28.487 19.6133L28.5051 8.84509Z" fill="#606060"/>
<path fill-rule="evenodd" clip-rule="evenodd" d="M61.293 0.300781H68.0671C68.0671 0.300781 74.087 9.46894 77.045 13.2553C80.003 17.0417 83.2049 21.3644 83.2049 21.3644V2.35078C83.2049 1.5326 81.0598 0.300781 81.0598 0.300781H88.8951C88.8951 0.300781 86.3255 1.36442 86.3255 2.35078V30.0007C86.3255 30.0007 83.8597 28.6371 81.0598 25.3553C77.8985 21.6826 66.7393 6.84622 66.7393 6.84622V26.0598C66.7393 27.0416 68.8845 28.5325 68.8845 28.5325H61.293C61.293 28.5325 63.3749 27.0325 63.3749 26.0598V2.35078C63.3749 1.4826 61.293 0.300781 61.293 0.300781Z" fill="#606060"/>
<path fill-rule="evenodd" clip-rule="evenodd" d="M93.2832 0.300781H101.999C101.999 0.300781 99.6599 1.41442 99.6599 2.35078V26.0598C99.6599 27.0825 101.999 28.5325 101.999 28.5325H93.2832C93.2832 28.5325 95.4735 27.0507 95.4735 26.0598V2.35078C95.4735 1.45078 93.2832 0.300781 93.2832 0.300781Z" fill="#606060"/>
<path fill-rule="evenodd" clip-rule="evenodd" d="M35.6406 0.300781C35.6406 0.300781 37.8987 1.4326 37.8987 2.35078V26.0598C37.8987 27.0689 35.6406 28.5325 35.6406 28.5325H48.5565C49.3649 28.5325 58.4061 27.0462 58.4061 20.0326C58.4061 13.0189 51.3836 12.3598 51.3836 12.3598C52.6434 11.9582 53.7405 11.1574 54.5112 10.077C55.2819 8.99653 55.685 7.69427 55.6603 6.3644C55.6603 1.19169 49.3649 0.300781 48.5565 0.300781H35.6406ZM42.5005 11.8962V3.06896H47.7482C48.5566 3.06896 51.361 4.01895 51.361 7.53713C51.361 10.4371 48.534 11.8962 47.7482 11.8962H42.5005ZM42.5005 14.2098H48.5565C49.3649 14.2098 54.1294 15.4553 54.1294 19.6144C54.1294 23.8507 49.3649 25.3553 48.5565 25.3553H42.5005V14.2098Z" fill="#606060"/>
</svg>
