<svg width="171" height="30" viewBox="0 0 171 30" fill="none" xmlns="http://www.w3.org/2000/svg">
<path d="M74.2996 20.0456V13.7959C74.2996 11.4369 72.8003 9.85065 70.3787 9.82792C69.6893 9.78364 69.0007 9.92516 68.3846 10.2377C67.7685 10.5503 67.2475 11.0225 66.8758 11.6051C66.5366 11.0406 66.0518 10.5777 65.4723 10.2651C64.8928 9.95239 64.2399 9.8014 63.582 9.82792C63.0093 9.8011 62.4395 9.92407 61.9288 10.1847C61.4181 10.4453 60.9842 10.8346 60.6697 11.3142V10.0643H58.498V20.0638H60.6879V14.5141C60.6879 12.7823 61.6465 11.8687 63.1322 11.8687C64.6178 11.8687 65.2993 12.8051 65.2993 14.4959V20.0456H67.4756V14.5141C67.4756 12.7823 68.4751 11.8687 69.9153 11.8687C71.3555 11.8687 72.1052 12.8051 72.1052 14.4959V20.0456H74.2996ZM106.707 10.0734H103.163V7.04623H100.973V10.0734H98.9514V12.0551H100.973V16.6003C100.973 18.9139 101.882 20.2956 104.435 20.2956C105.398 20.299 106.343 20.0312 107.161 19.5229L106.539 17.6639C105.958 18.0122 105.298 18.2063 104.621 18.2275C103.536 18.2275 103.177 17.5594 103.177 16.5594V12.0551H106.72L106.707 10.0734ZM125.207 9.82338C124.678 9.80738 124.155 9.93451 123.693 10.1913C123.231 10.4481 122.847 10.8251 122.581 11.2824V10.0734H120.432V20.0456H122.599V14.455C122.599 12.7869 123.308 11.8869 124.73 11.8869C125.196 11.8797 125.659 11.9647 126.093 12.1369L126.761 10.0915C126.262 9.91305 125.736 9.82231 125.207 9.82338ZM97.2386 10.8642C96.0112 10.1337 94.5995 9.77231 93.1723 9.82338C90.6463 9.82338 89.0061 11.0324 89.0061 13.0051C89.0061 14.6322 90.2146 15.6322 92.4454 15.9458L93.4676 16.0913C94.6534 16.2549 95.2213 16.5458 95.2213 17.1321C95.2213 17.9003 94.4308 18.3412 92.9497 18.3412C91.7539 18.3807 90.5801 18.0138 89.6195 17.3003L88.6336 18.9911C89.897 19.8732 91.4096 20.3272 92.9497 20.2865C95.8301 20.2865 97.493 18.923 97.493 17.0321C97.493 15.2777 96.18 14.3595 94.0128 14.0505L92.9906 13.905C92.0547 13.7777 91.3005 13.5914 91.3005 12.9232C91.3005 12.2551 92.0092 11.7597 93.1996 11.7597C94.2908 11.7745 95.3602 12.067 96.3072 12.6096L97.2386 10.8642ZM155.333 9.82338C154.807 9.81049 154.286 9.93902 153.826 10.1956C153.366 10.4522 152.983 10.8275 152.716 11.2824V10.0734H150.572V20.0456H152.716V14.455C152.716 12.7869 153.425 11.8869 154.843 11.8869C155.309 11.8798 155.772 11.9648 156.206 12.1369L156.874 10.0915C156.379 9.91459 155.858 9.82388 155.333 9.82338ZM127.397 15.0595C127.397 18.0821 129.505 20.2956 132.717 20.2956C134.02 20.3551 135.299 19.9255 136.302 19.0911L135.257 17.3412C134.508 17.9142 133.596 18.2327 132.653 18.2503C130.922 18.2503 129.65 16.9731 129.65 15.0686C129.65 13.1641 130.922 11.8869 132.653 11.8869C133.597 11.9 134.51 12.219 135.257 12.796L136.302 11.0415C135.304 10.2007 134.029 9.763 132.726 9.81428C129.514 9.81428 127.406 12.0233 127.406 15.0504L127.397 15.0595ZM147.71 15.0595V10.0597H145.538V11.2688C145.168 10.7911 144.689 10.4093 144.142 10.1554C143.594 9.90154 142.993 9.78298 142.39 9.80974C139.596 9.80974 137.392 12.0005 137.392 15.0459C137.392 18.0912 139.582 20.282 142.39 20.282C142.993 20.3071 143.594 20.1873 144.142 19.9327C144.689 19.6781 145.168 19.296 145.538 18.8184V20.0275H147.719L147.71 15.0595ZM139.641 15.0595C139.641 13.305 140.786 11.8778 142.662 11.8778C144.48 11.8778 145.665 13.2414 145.665 15.0595C145.665 16.8776 144.457 18.2412 142.662 18.2412C140.786 18.2503 139.641 16.8185 139.641 15.0595ZM113.467 9.82338C110.55 9.82338 108.501 11.9506 108.501 15.0595C108.501 18.1685 110.632 20.2956 113.613 20.2956C115.101 20.3445 116.555 19.8465 117.701 18.8957L116.638 17.273C115.81 17.9361 114.783 18.3025 113.722 18.3139C112.327 18.3139 111.055 17.6685 110.741 15.8731H118.147C118.147 15.6004 118.188 15.3322 118.188 15.0413C118.188 11.9324 116.248 9.80519 113.454 9.80519L113.467 9.82338ZM113.426 11.7642C114.821 11.7642 115.698 12.6369 115.948 14.1823H110.782C111.009 12.7414 111.882 11.7642 113.426 11.7642ZM167.823 15.0595V6.06445H165.656V11.2779C165.286 10.8008 164.806 10.4194 164.259 10.1656C163.711 9.91173 163.11 9.79283 162.507 9.81883C159.713 9.81883 157.51 12.0096 157.51 15.055C157.51 18.1003 159.699 20.2911 162.507 20.2911C163.111 20.3151 163.711 20.1948 164.258 19.9403C164.806 19.6857 165.285 19.3043 165.656 18.8275V20.0366H167.823V15.0595ZM170.358 19.123C170.444 19.1233 170.529 19.1403 170.608 19.173C170.684 19.2044 170.754 19.2507 170.812 19.3093C170.87 19.3668 170.916 19.4347 170.949 19.5093C170.982 19.5867 171 19.6703 171 19.7547C171 19.8392 170.982 19.9228 170.949 20.0002C170.918 20.076 170.872 20.1443 170.812 20.2002C170.753 20.2587 170.684 20.3064 170.608 20.3411C170.529 20.3738 170.444 20.3907 170.358 20.3911C170.252 20.3932 170.147 20.3689 170.053 20.3203C169.959 20.2717 169.879 20.2004 169.819 20.1128C169.76 20.0253 169.723 19.9242 169.712 19.8188C169.702 19.7134 169.717 19.607 169.758 19.5093C169.826 19.3587 169.948 19.2387 170.099 19.173C170.184 19.1385 170.275 19.1215 170.367 19.123H170.358ZM170.358 20.2456C170.424 20.25 170.489 20.2375 170.549 20.2093C170.608 20.1869 170.661 20.1511 170.703 20.1047C170.75 20.059 170.787 20.0046 170.812 19.9445C170.837 19.8844 170.85 19.8199 170.85 19.7547C170.85 19.6896 170.837 19.6251 170.812 19.565C170.787 19.5049 170.75 19.4504 170.703 19.4048C170.658 19.3613 170.606 19.3259 170.549 19.3002C170.488 19.2764 170.423 19.264 170.358 19.2639C170.291 19.2649 170.225 19.2772 170.163 19.3002C170.042 19.3531 169.947 19.4516 169.899 19.5742C169.85 19.6967 169.852 19.8335 169.904 19.9547C169.927 20.0106 169.961 20.0615 170.004 20.1047C170.049 20.1504 170.103 20.186 170.163 20.2093C170.227 20.237 170.297 20.2495 170.367 20.2456H170.358ZM170.399 19.4548C170.461 19.4507 170.522 19.4684 170.572 19.5048C170.592 19.5223 170.608 19.544 170.619 19.5683C170.63 19.5926 170.635 19.619 170.635 19.6457C170.635 19.6677 170.631 19.6895 170.622 19.7099C170.614 19.7302 170.601 19.7485 170.585 19.7638C170.547 19.798 170.5 19.8187 170.449 19.8229L170.64 20.0456H170.49L170.308 19.8229H170.249V20.0456H170.126V19.4593L170.399 19.4548ZM170.249 19.5638V19.7229H170.399C170.424 19.732 170.451 19.732 170.476 19.7229C170.485 19.7157 170.492 19.7066 170.496 19.6964C170.501 19.6862 170.504 19.6751 170.504 19.6638C170.504 19.6526 170.501 19.6415 170.496 19.6313C170.492 19.6211 170.485 19.612 170.476 19.6048C170.451 19.6002 170.424 19.6002 170.399 19.6048L170.249 19.5638ZM159.763 15.0595C159.763 13.305 160.908 11.8778 162.784 11.8778C164.602 11.8778 165.787 13.2414 165.787 15.0595C165.787 16.8776 164.579 18.2412 162.784 18.2412C160.894 18.2503 159.763 16.8185 159.763 15.0595ZM86.521 15.0595V10.0597H84.3538V11.2688C83.9843 10.7953 83.507 10.4171 82.9616 10.1656C82.4163 9.91421 81.8188 9.79686 81.219 9.82338C78.4249 9.82338 76.2214 12.0142 76.2214 15.0595C76.2214 18.1048 78.4112 20.2956 81.219 20.2956C81.8217 20.32 82.4215 20.1999 82.9684 19.9453C83.5152 19.6907 83.9934 19.309 84.3629 18.8321V20.0411H86.5346L86.521 15.0595ZM78.4521 15.0595C78.4521 13.305 79.597 11.8778 81.4734 11.8778C83.268 11.8778 84.4765 13.2414 84.4765 15.0595C84.4765 16.8776 83.268 18.2412 81.4734 18.2412C79.597 18.2412 78.4521 16.8003 78.4521 15.0595Z" fill="#231F20"/>
<path d="M30.8215 3.20117H17.7051V26.7819H30.8215V3.20117Z" fill="#FF5F00"/>
<path d="M18.5361 15.0008C18.534 12.7299 19.0483 10.4883 20.0401 8.44558C21.0319 6.40289 22.4751 4.61268 24.2606 3.21042C22.049 1.4705 19.3927 0.388254 16.5953 0.0874C13.798 -0.213454 10.9724 0.279226 8.4417 1.50912C5.911 2.73901 3.77729 4.65648 2.28448 7.04232C0.791665 9.42815 0 12.1861 0 15.0008C0 17.8155 0.791665 20.5734 2.28448 22.9593C3.77729 25.3451 5.911 27.2626 8.4417 28.4925C10.9724 29.7224 13.798 30.215 16.5953 29.9142C19.3927 29.6133 22.049 28.5311 24.2606 26.7912C22.4766 25.3876 21.0345 23.5971 20.0429 21.5547C19.0512 19.5123 18.536 17.2714 18.5361 15.0008Z" fill="#EB001B"/>
<path d="M48.5183 15.0007C48.5168 17.8143 47.7243 20.5708 46.2314 22.9553C44.7384 25.3397 42.6052 27.256 40.0754 28.4852C37.5456 29.7144 34.7212 30.2069 31.9249 29.9066C29.1285 29.6062 26.473 28.525 24.2617 26.7865C26.0458 25.383 27.488 23.5925 28.4797 21.5501C29.4714 19.5077 29.9867 17.2668 29.9867 14.9962C29.9867 12.7256 29.4714 10.4846 28.4797 8.4422C27.488 6.39983 26.0458 4.60935 24.2617 3.20578C26.4752 1.46562 29.1336 0.384065 31.9328 0.0848826C34.7319 -0.2143 37.5588 0.280983 40.0897 1.51405C42.6207 2.74711 44.7535 4.66814 46.2441 7.05727C47.7347 9.4464 48.5228 12.2071 48.5183 15.0234V15.0007Z" fill="#F79E1B"/>
<path d="M47.0787 24.2865V23.8002H47.2741V23.7047H46.7832V23.8047H46.9832V24.2865H47.0787ZM48.0377 24.2865V23.7002H47.9104L47.7332 24.1184L47.5605 23.7002H47.4059V24.2865H47.4923V23.832L47.6559 24.2138H47.7695L47.9286 23.832V24.2865H48.0377Z" fill="#F79E1B"/>
</svg>
