<svg width="98" height="30" viewBox="0 0 98 30" fill="none" xmlns="http://www.w3.org/2000/svg">
<path d="M34.5273 29.5592L39.4854 0.504883H47.422L42.4549 29.5592H34.5273Z" fill="#004686"/>
<path d="M71.229 1.22282C68.9493 0.397654 66.5425 -0.0161494 64.1196 0.000482101C56.2779 0.000482101 50.7548 3.94013 50.7096 9.58833C50.6644 13.7643 54.6508 16.0908 57.6609 17.4813C60.7479 18.9035 61.7874 19.8123 61.7738 21.0847C61.7738 23.034 59.3061 23.9247 57.0282 23.9247C54.4541 24.0009 51.8973 23.4784 49.5571 22.3979L48.5357 21.9435L47.4238 28.4505C49.2769 29.2593 52.7028 29.9636 56.2598 30C64.5986 30 70.0132 26.1058 70.0765 20.0759C70.1081 16.7679 67.9929 14.255 63.4145 12.1784C60.6439 10.8152 58.9445 9.93822 58.9626 8.57956C58.9626 7.37086 60.3999 6.08036 63.4823 6.08036C65.5173 6.03362 67.5397 6.41273 69.4212 7.19364L70.1307 7.52535L71.229 1.22282Z" fill="#004686"/>
<path d="M91.5775 0.532227H85.4442C83.546 0.532227 82.1268 1.05024 81.2906 2.94055L69.5078 29.5684H77.8376C77.8376 29.5684 79.1935 25.9877 79.5099 25.2016H89.6701C89.9097 26.2195 90.6374 29.5548 90.6374 29.5548H97.9999L91.5775 0.532227ZM81.8059 19.2581C82.4612 17.5859 84.9697 11.1379 84.9697 11.1379C84.9245 11.2152 85.625 9.45665 86.0228 8.36609L86.5606 10.8698C86.5606 10.8698 88.0792 17.804 88.3956 19.2581H81.8059Z" fill="#004686"/>
<path d="M27.869 0.527832L20.1041 20.3397L19.2725 16.3137C17.8262 11.6697 13.3246 6.64406 8.28516 4.12668L15.3901 29.5368H23.7832L36.2756 0.527832H27.869Z" fill="#004686"/>
<path d="M12.8947 0.509277H0.0994332L0 1.11363C9.94332 3.51741 16.5375 9.32919 19.272 16.3133L16.4923 2.96304C16.0133 1.14544 14.6167 0.572893 12.8766 0.509277H12.8947Z" fill="#EF9B11"/>
</svg>
